<svg width="21" height="24" viewBox="0 0 21 24" fill="none" xmlns="http://www.w3.org/2000/svg">
<path d="M20.3665 6.23774C20.3479 5.86998 20.1928 5.52239 19.9316 5.26286C19.6703 5.00333 19.3218 4.85051 18.9539 4.83425C18.8836 4.83425 13.0433 4.58657 11.5053 0.917314C11.3959 0.647956 11.2091 0.417059 10.9686 0.253791C10.728 0.0905224 10.4445 0.00220686 10.1538 0C9.86523 0.000869483 9.58312 0.0853852 9.34161 0.243311C9.10011 0.401237 8.90958 0.625797 8.7931 0.889795C8.77781 0.926487 7.14499 4.55905 1.42401 4.8373C1.06405 4.85361 0.722602 5.00148 0.464454 5.25286C0.206306 5.50425 0.0494225 5.84165 0.0235723 6.20105C-0.00394709 6.72697 -0.78978 19.2972 9.55141 23.8746C9.74411 23.9592 9.95254 24.0019 10.163 24C10.321 24.0005 10.4781 23.9746 10.6277 23.9236C10.7164 23.8899 21.0209 20.291 20.3665 6.23774Z" fill="#007339"/>
<path d="M18.8927 6.30812C18.8927 6.30812 12.0771 6.09714 10.1477 1.47388C10.1477 1.47388 8.19684 5.99624 1.49127 6.30812C1.49127 6.30812 0.635107 18.3158 10.1477 22.514C10.1477 22.5262 19.5043 19.4074 18.8927 6.30812ZM14.3061 11.0323L10.0865 15.0104C9.8872 15.1969 9.62304 15.2984 9.35012 15.2932C9.07721 15.2881 8.81705 15.1767 8.62491 14.9829L6.28576 12.6437C6.0883 12.4466 5.9772 12.1792 5.97691 11.9002C5.97662 11.6213 6.08717 11.3536 6.28423 11.1561C6.4813 10.9587 6.74873 10.8476 7.02771 10.8473C7.30668 10.847 7.57434 10.9575 7.77181 11.1546L9.38934 12.7721L12.8568 9.50344C12.9561 9.40305 13.0745 9.32368 13.2051 9.27004C13.3357 9.21641 13.4758 9.18961 13.6169 9.19125C13.7581 9.19288 13.8975 9.22292 14.0268 9.27957C14.1561 9.33622 14.2727 9.41832 14.3696 9.52098C14.4665 9.62364 14.5418 9.74476 14.5909 9.87712C14.64 10.0095 14.662 10.1504 14.6555 10.2914C14.649 10.4324 14.6142 10.5707 14.5531 10.698C14.492 10.8253 14.406 10.939 14.3 11.0323H14.3061Z" fill="#FFD450"/>
</svg>
